<?xml version="1.0" encoding="utf-8"?>
<!-- Generator: Adobe Illustrator 15.0.0, SVG Export Plug-In . SVG Version: 6.00 Build 0)  -->
<!DOCTYPE svg PUBLIC "-//W3C//DTD SVG 1.1//EN" "http://www.w3.org/Graphics/SVG/1.1/DTD/svg11.dtd">
<svg version="1.1" id="Layer_1" xmlns="http://www.w3.org/2000/svg" xmlns:xlink="http://www.w3.org/1999/xlink" x="0px" y="0px"
	 width="46px" height="35px" viewBox="0 0 46 35" enable-background="new 0 0 46 35" xml:space="preserve">
<g>
	<path fill="#B4B3B4" d="M7.3311,20.9629v-7.5146h2.5884c0.5845,0,1.0303,0.0361,1.3379,0.1079
		c0.4307,0.0991,0.7979,0.2783,1.1021,0.5381c0.3965,0.335,0.6929,0.7627,0.8892,1.2842c0.1968,0.521,0.2949,1.1162,0.2949,1.7861
		c0,0.5708-0.0664,1.0767-0.1997,1.5171c-0.1333,0.4414-0.3042,0.8057-0.5127,1.0947c-0.2085,0.2881-0.4365,0.5166-0.6846,0.6816
		c-0.2476,0.165-0.5464,0.292-0.897,0.377c-0.3501,0.085-0.7524,0.1279-1.207,0.1279H7.3311z M8.3252,20.0762h1.6045
		c0.4956,0,0.8843-0.0469,1.166-0.1387c0.2822-0.0918,0.5068-0.2217,0.6743-0.3887c0.2358-0.2363,0.4194-0.5527,0.5508-0.9512
		c0.1318-0.3984,0.1978-0.8813,0.1978-1.4482c0-0.7861-0.1294-1.3901-0.3872-1.812c-0.2583-0.4224-0.5718-0.7051-0.9404-0.8486
		c-0.2666-0.1025-0.6958-0.1538-1.2866-0.1538H8.3252V20.0762z"/>
	<path fill="#B4B3B4" d="M18.5205,19.21l0.9536,0.1182c-0.1504,0.5566-0.4292,0.9883-0.8354,1.2969
		c-0.4067,0.3066-0.9263,0.4609-1.5586,0.4609c-0.7964,0-1.4272-0.2451-1.894-0.7354c-0.4663-0.4912-0.6997-1.1787-0.6997-2.0635
		c0-0.9155,0.2358-1.6265,0.7075-2.1323s1.0835-0.7588,1.835-0.7588c0.728,0,1.3228,0.248,1.7842,0.7432
		c0.4609,0.4956,0.6919,1.1929,0.6919,2.0913c0,0.0547-0.002,0.1367-0.0054,0.2461h-4.0596
		c0.0342,0.5977,0.2031,1.0566,0.5073,1.374s0.6836,0.4766,1.1382,0.4766c0.3384,0,0.627-0.0889,0.8662-0.2666
		S18.3804,19.5996,18.5205,19.21z M15.4912,17.7183h3.0396c-0.041-0.458-0.1572-0.8013-0.3486-1.0303
		c-0.2939-0.3555-0.6748-0.5332-1.1431-0.5332c-0.4238,0-0.7798,0.1416-1.0688,0.4253
		C15.6816,16.8638,15.522,17.2432,15.4912,17.7183z"/>
	<path fill="#B4B3B4" d="M20.853,20.9629v-4.7261h-0.8154V15.519h0.8154v-0.5791c0-0.3657,0.0322-0.6372,0.0972-0.8149
		c0.0889-0.2393,0.2451-0.4331,0.4692-0.582c0.2236-0.1484,0.5371-0.2227,0.9404-0.2227c0.2598,0,0.5469,0.0308,0.8613,0.0923
		l-0.1387,0.8047c-0.1914-0.0342-0.3726-0.0513-0.5435-0.0513c-0.2803,0-0.478,0.0596-0.5942,0.1792s-0.1743,0.3438-0.1743,0.6714
		v0.5024h1.061v0.7178h-1.061v4.7261H20.853z"/>
	<path fill="#B4B3B4" d="M27.1016,20.291c-0.3418,0.291-0.6699,0.4961-0.9863,0.6152s-0.6562,0.1797-1.0176,0.1797
		c-0.5977,0-1.0586-0.1465-1.3789-0.4385c-0.3213-0.292-0.4819-0.665-0.4819-1.1201c0-0.2656,0.0605-0.5098,0.1821-0.7305
		c0.1211-0.2207,0.2798-0.3965,0.4766-0.5303c0.1963-0.1338,0.417-0.2334,0.6631-0.3022c0.1816-0.0479,0.4551-0.0942,0.8203-0.1387
		c0.7461-0.0889,1.2939-0.1948,1.6465-0.3179c0.0029-0.126,0.0039-0.2065,0.0039-0.2407c0-0.376-0.0859-0.6406-0.2607-0.7944
		c-0.2354-0.2085-0.5859-0.313-1.0508-0.313c-0.4346,0-0.7549,0.0762-0.9619,0.2285c-0.2061,0.1519-0.3594,0.4209-0.458,0.8071
		l-0.9023-0.123c0.082-0.3862,0.2173-0.6978,0.4053-0.9355c0.1875-0.2373,0.459-0.4204,0.8145-0.5483s0.7676-0.1924,1.2363-0.1924
		c0.4639,0,0.8418,0.0547,1.1328,0.1641c0.29,0.1094,0.5039,0.2471,0.6406,0.4126c0.1367,0.166,0.2324,0.375,0.2871,0.6279
		c0.0303,0.1572,0.0449,0.4409,0.0449,0.8511v1.23c0,0.8574,0.0205,1.4004,0.0596,1.6279s0.1172,0.4443,0.2334,0.6533h-0.9639
		C27.1904,20.7715,27.1289,20.5479,27.1016,20.291z M27.0254,18.2305c-0.3359,0.1367-0.8379,0.2539-1.5078,0.3486
		c-0.3789,0.0557-0.6475,0.1162-0.8047,0.1846s-0.2783,0.168-0.3633,0.3008c-0.0859,0.1309-0.1289,0.2773-0.1289,0.4375
		c0,0.2461,0.0938,0.4512,0.2793,0.6152c0.1865,0.1641,0.459,0.2461,0.8184,0.2461c0.3555,0,0.6709-0.0781,0.9473-0.2334
		c0.2773-0.1553,0.4805-0.3682,0.6104-0.6377c0.0986-0.209,0.1494-0.5166,0.1494-0.9238V18.2305z"/>
	<path fill="#B4B3B4" d="M32.9551,20.9629v-0.7998c-0.4238,0.6152-1,0.9229-1.7266,0.9229c-0.3223,0-0.6211-0.0615-0.9004-0.1846
		c-0.2773-0.123-0.4844-0.2783-0.6191-0.4639c-0.1367-0.1855-0.2305-0.4141-0.2852-0.6836
		c-0.0371-0.1816-0.0566-0.4688-0.0566-0.8613V15.519h0.9219v3.02c0,0.4805,0.0195,0.8057,0.0566,0.9727
		c0.0586,0.2432,0.1816,0.4336,0.3691,0.5723s0.4199,0.207,0.6973,0.207s0.5371-0.0703,0.7793-0.2129
		c0.2422-0.1406,0.4141-0.334,0.5156-0.5781c0.0996-0.2441,0.1504-0.5996,0.1504-1.0645V15.519h0.9238v5.4438H32.9551z"/>
	<path fill="#B4B3B4" d="M35.2051,20.9629v-7.5146h0.9219v7.5146H35.2051z"/>
	<path fill="#B4B3B4" d="M39.5723,20.1377l0.1348,0.8154c-0.2598,0.0547-0.4922,0.082-0.6973,0.082
		c-0.3359,0-0.5957-0.0537-0.7793-0.1592c-0.1855-0.1064-0.3145-0.2451-0.3906-0.418c-0.0742-0.1729-0.1113-0.5361-0.1113-1.0889
		v-3.1323h-0.6777V15.519h0.6777v-1.3481l0.916-0.5532v1.9014h0.9277v0.7178h-0.9277v3.1831c0,0.2637,0.0176,0.4326,0.0488,0.5078
		c0.0332,0.0742,0.0859,0.1348,0.1602,0.1797c0.0723,0.0439,0.1777,0.0664,0.3145,0.0664
		C39.2715,20.1738,39.4062,20.1621,39.5723,20.1377z"/>
</g>
</svg>
