<?xml version="1.0" encoding="utf-8"?>
<!-- Generator: Adobe Illustrator 15.0.0, SVG Export Plug-In . SVG Version: 6.00 Build 0)  -->
<!DOCTYPE svg PUBLIC "-//W3C//DTD SVG 1.1//EN" "http://www.w3.org/Graphics/SVG/1.1/DTD/svg11.dtd">
<svg version="1.1" id="Layer_1" xmlns="http://www.w3.org/2000/svg" xmlns:xlink="http://www.w3.org/1999/xlink" x="0px" y="0px"
	 width="46px" height="35px" viewBox="0 0 46 35" enable-background="new 0 0 46 35" xml:space="preserve">
<g>
	<polygon fill="#B4B3B4" points="4.0361,17.5698 7.563,17.5698 7.563,16.6831 4.0361,16.6831 4.0361,14.356 8.1113,14.356 
		8.1113,13.4692 3.042,13.4692 3.042,20.9844 4.0361,20.9844 	"/>
	<path fill="#B4B3B4" d="M9.6055,20.459c0.1353,0.1855,0.3418,0.3398,0.6206,0.4629c0.2783,0.123,0.5781,0.1855,0.8994,0.1855
		c0.728,0,1.3037-0.3086,1.7275-0.9238v0.8008h0.8252V15.54h-0.9229v2.917c0,0.4648-0.0503,0.8193-0.1509,1.0635
		c-0.1011,0.2441-0.2729,0.4375-0.5151,0.5791c-0.2427,0.1426-0.5024,0.2129-0.7793,0.2129s-0.5093-0.0693-0.6973-0.207
		c-0.188-0.1387-0.311-0.3301-0.3691-0.5723c-0.0376-0.168-0.0562-0.4922-0.0562-0.9736V15.54H9.2646v3.373
		c0,0.3936,0.019,0.6807,0.0566,0.8613C9.376,20.0439,9.4707,20.2725,9.6055,20.459z"/>
	<rect x="15.103" y="13.4692" fill="#B4B3B4" width="0.9229" height="7.5151"/>
	<rect x="17.4351" y="13.4692" fill="#B4B3B4" width="0.9229" height="7.5151"/>
	<path fill="#B4B3B4" d="M21.7563,20.9844l1.1021-4.1885l0.2104,0.9277l0.8662,3.2607h0.9595l1.7012-5.4443h-0.8965l-0.9336,3.1475
		l-0.3125,1.0508l-0.2715-1.041L23.3662,15.54H22.418l-0.8667,3.1885c-0.1738,0.6904-0.2681,1.0645-0.2817,1.123l-0.3228-1.1699
		L20.0806,15.54H19.127l1.666,5.4443H21.7563z"/>
	<rect x="27.375" y="13.4692" fill="#B4B3B4" width="0.9229" height="1.061"/>
	<rect x="27.375" y="15.54" fill="#B4B3B4" width="0.9229" height="5.4443"/>
	<path fill="#B4B3B4" d="M30.5146,20.748c0.3633,0.2393,0.7627,0.3594,1.1963,0.3594c0.6699,0,1.1777-0.2705,1.5225-0.8105v0.6875
		h0.8564v-7.5151h-0.918v2.6963c-0.1602-0.2222-0.3691-0.4023-0.625-0.541c-0.2568-0.1382-0.5488-0.2075-0.877-0.2075
		c-0.4473,0-0.8525,0.1182-1.2148,0.354s-0.6338,0.5747-0.8145,1.0171c-0.1816,0.4429-0.2725,0.9355-0.2725,1.4795
		c0,0.5566,0.1006,1.0498,0.2998,1.4785C29.8682,20.1748,30.1504,20.5088,30.5146,20.748z M30.7295,16.6831
		c0.2754-0.335,0.6182-0.5024,1.0273-0.5024c0.4209,0,0.7744,0.1743,1.0615,0.5229s0.4307,0.8955,0.4307,1.6401
		c0,0.6768-0.1406,1.1797-0.4229,1.5098s-0.625,0.4941-1.0283,0.4941c-0.3994,0-0.7461-0.1719-1.04-0.5176
		c-0.2939-0.3447-0.4414-0.8652-0.4414-1.5625C30.3164,17.5464,30.4541,17.0181,30.7295,16.6831z"/>
	<path fill="#B4B3B4" d="M35.709,19.3896c0,0.5537,0.0371,0.917,0.1123,1.0889c0.0752,0.1729,0.2051,0.3125,0.3896,0.418
		s0.4443,0.1592,0.7793,0.1592c0.2051,0,0.4375-0.0273,0.6973-0.082l-0.1338-0.8154c-0.167,0.0244-0.3018,0.0361-0.4043,0.0361
		c-0.1367,0-0.2422-0.0225-0.3154-0.0664s-0.127-0.1045-0.1592-0.1797s-0.0488-0.2441-0.0488-0.5068v-3.1836h0.9277V15.54H36.626
		v-1.9014l-0.917,0.5532V15.54h-0.6768v0.7178h0.6768V19.3896z"/>
	<path fill="#B4B3B4" d="M39.3789,18.0059c0-0.4272,0.0518-0.7622,0.1543-1.0049s0.2744-0.4346,0.5146-0.5767
		c0.2412-0.1416,0.498-0.2129,0.7715-0.2129c0.3662,0,0.6484,0.1055,0.8486,0.3154c0.2002,0.2104,0.2998,0.5459,0.2998,1.0073
		v3.4502h0.9229v-3.4502c0-0.5332-0.0645-0.9399-0.1924-1.2202c-0.1279-0.2798-0.3408-0.4995-0.6377-0.6587
		c-0.2979-0.1587-0.6484-0.2383-1.0508-0.2383c-0.6562,0-1.2002,0.2495-1.6309,0.7485v-2.6963H38.457v7.5151h0.9219V18.0059z"/>
	<polygon fill="#B4B3B4" points="44.3242,27.9834 44.7852,27.5225 44.3242,27.0615 44.3242,27 44.2627,27 41.8359,24.5732 
		41.1289,25.2803 42.8486,27 3.4541,27 5.1733,25.2803 4.4663,24.5732 1.5186,27.5215 4.4673,30.4707 5.1743,29.7637 3.4111,28 
		42.8936,28 41.1299,29.7637 41.8369,30.4707 44.3076,28 44.3242,28 	"/>
</g>
</svg>
