<svg xmlns="http://www.w3.org/2000/svg" width="400" height="18" viewBox="0 0 400 18"><style>.st0{fill:#fff;width:16px;height:16px}.st1{fill:none;stroke:#fff;stroke-width:1.5;stroke-linecap:round}.st2{fill:none;stroke:#FFFFFF;stroke-width:2;stroke-linecap:round}.st3{fill:none;stroke:#fff} .st4{fill:#231F20}</style><path class="st0" d="M81 1.4c0-.6.4-1 1-1h5.4c.6 0 .7.3.3.7l-6 6c-.4.4-.7.3-.7-.3V1.4zm0 15.8c0 .6.4 1 1 1h5.4c.6 0 .7-.3.3-.7l-6-6c-.4-.4-.7-.3-.7.3v5.4zM98.8 1.4c0-.6-.4-1-1-1h-5.4c-.6 0-.7.3-.3.7l6 6c.4.4.7.3.7-.3V1.4zm0 15.8c0 .6-.4 1-1 1h-5.4c-.6 0-.7-.3-.3-.7l6-6c.4-.4.7-.3.7.3v5.4z"/><path class="st0" d="M112.7 5c0 .6.4 1 1 1h4.1c.6 0 .7-.3.3-.7L113.4.6c-.4-.4-.7-.3-.7.3V5zm-7.1 1c.6 0 1-.4 1-1V.9c0-.6-.3-.7-.7-.3l-4.7 4.7c-.4.4-.3.7.3.7h4.1zm1 7.1c0-.6-.4-1-1-1h-4.1c-.6 0-.7.3-.3.7l4.7 4.7c.4.4.7.3.7-.3v-4.1zm7.1-1c-.6 0-1 .4-1 1v4.1c0 .5.3.7.7.3l4.7-4.7c.4-.4.3-.7-.3-.7h-4.1z"/><path class="st0" d="M67 5.8c-.5.4-1.2.6-1.8.6H62c-.6 0-1 .4-1 1v5.7c0 .6.4 1 1 1h4.2c.3.2.5.4.8.6l3.5 2.6c.4.3.8.1.8-.4V3.5c0-.5-.4-.7-.8-.4L67 5.8z"/><path class="st1" d="M73.9 2.5s3.9-.8 3.9 7.7-3.9 7.8-3.9 7.8"/><path class="st1" d="M72.6 6.4s2.6-.4 2.6 3.8-2.6 3.9-2.6 3.9"/><path class="st0" d="M47 5.8c-.5.4-1.2.6-1.8.6H42c-.6 0-1 .4-1 1v5.7c0 .6.4 1 1 1h4.2c.3.2.5.4.8.6l3.5 2.6c.4.3.8.1.8-.4V3.5c0-.5-.4-.7-.8-.4L47 5.8z"/><path class="st2" d="M52.8 7l5.4 5.4m-5.4 0L58.2 7"/><path class="st3" d="M128.7 8.6c-6.2-4.2-6.5 7.8 0 3.9m6.5-3.9c-6.2-4.2-6.5 7.8 0 3.9"/><path class="st0" d="M122.2 3.4h15.7v13.1h-15.7V3.4zM120.8 2v15.7h18.3V2h-18.3z"/><path class="st0" d="M143.2 3h14c1.1 0 2 .9 2 2v10c0 1.1-.9 2-2 2h-14c-1.1 0-2-.9-2-2V5c0-1.1.9-2 2-2z"/><path class="st4" d="M146.4 13.8c-.8 0-1.6-.4-2.1-1-1.1-1.4-1-3.4.1-4.8.5-.6 2-1.7 4.6.2l-.6.8c-1.4-1-2.6-1.1-3.3-.3-.8 1-.8 2.4-.1 3.5.7.9 1.9.8 3.4-.1l.5.9c-.7.5-1.6.7-2.5.8zm7.5 0c-.8 0-1.6-.4-2.1-1-1.1-1.4-1-3.4.1-4.8.5-.6 2-1.7 4.6.2l-.5.8c-1.4-1-2.6-1.1-3.3-.3-.8 1-.8 2.4-.1 3.5.7.9 1.9.8 3.4-.1l.5.9c-.8.5-1.7.7-2.6.8z"/><path class="st0" d="M178 9.4c0 .4-.4.7-.9.7-.1 0-.2 0-.2-.1L172 8.2c-.5-.2-.6-.6-.1-.8l6.2-3.6c.5-.3.8-.1.7.5l-.8 5.1z"/><path class="st0" d="M169.4 15.9c-1 0-2-.2-2.9-.7-2-1-3.2-3-3.2-5.2.1-3.4 2.9-6 6.3-6 2.5.1 4.8 1.7 5.6 4.1l.1-.1 2.1 1.1c-.6-4.4-4.7-7.5-9.1-6.9-3.9.6-6.9 3.9-7 7.9 0 2.9 1.7 5.6 4.3 7 1.2.6 2.5.9 3.8 1 2.6 0 5-1.2 6.6-3.3l-1.8-.9c-1.2 1.2-3 2-4.8 2z"/><path class="st0" d="M183.4 3.2c.8 0 1.5.7 1.5 1.5s-.7 1.5-1.5 1.5-1.5-.7-1.5-1.5c0-.9.7-1.5 1.5-1.5zm5.1 0h8.5c.9 0 1.5.7 1.5 1.5s-.7 1.5-1.5 1.5h-8.5c-.9 0-1.5-.7-1.5-1.5-.1-.9.6-1.5 1.5-1.5zm-5.1 5c.8 0 1.5.7 1.5 1.5s-.7 1.5-1.5 1.5-1.5-.7-1.5-1.5c0-.9.7-1.5 1.5-1.5zm5.1 0h8.5c.9 0 1.5.7 1.5 1.5s-.7 1.5-1.5 1.5h-8.5c-.9 0-1.5-.7-1.5-1.5-.1-.9.6-1.5 1.5-1.5zm-5.1 5c.8 0 1.5.7 1.5 1.5s-.7 1.5-1.5 1.5-1.5-.7-1.5-1.5c0-.9.7-1.5 1.5-1.5zm5.1 0h8.5c.9 0 1.5.7 1.5 1.5s-.7 1.5-1.5 1.5h-8.5c-.9 0-1.5-.7-1.5-1.5-.1-.9.6-1.5 1.5-1.5z"/></svg>